<?xml version="1.0" encoding="UTF-8"?>
<svg version="1.1" xmlns="http://www.w3.org/2000/svg" width="512" height="512">
<path d="M0 0 C0.72915832 -0.00465992 1.45831665 -0.00931984 2.20957068 -0.01412097 C4.64207722 -0.02602975 7.07402095 -0.01669176 9.50653172 -0.00736332 C11.27243992 -0.01153804 13.03834545 -0.01701632 14.80424601 -0.02368313 C19.64872284 -0.03813821 24.49302956 -0.0338928 29.33751571 -0.02651632 C34.56528787 -0.02178715 39.79302309 -0.03429226 45.02078342 -0.04453373 C55.25905579 -0.06173171 65.4972668 -0.06255969 75.73554986 -0.05732083 C84.05670382 -0.05327991 92.37783964 -0.05472175 100.69899273 -0.06006908 C101.88316491 -0.06081751 103.0673371 -0.06156593 104.28739329 -0.06233703 C106.69300544 -0.0638685 109.09861759 -0.06540685 111.50422973 -0.066952 C134.06445005 -0.08068055 156.6246357 -0.07523675 179.18485523 -0.06376678 C199.82592 -0.05383308 220.46689515 -0.06677685 241.10794609 -0.09070098 C262.30163473 -0.11508062 283.4952816 -0.1247027 304.68898398 -0.11804825 C316.58788889 -0.11455363 328.48672485 -0.11680418 340.38561916 -0.13429928 C350.51438152 -0.14900699 360.64302637 -0.14967533 370.77178638 -0.13222837 C375.93948554 -0.12370444 381.10697466 -0.12160293 386.27466297 -0.13687992 C391.00648388 -0.15069524 395.73791419 -0.14600444 400.46971232 -0.12664068 C402.18025343 -0.12287069 403.89082558 -0.12583137 405.60133909 -0.13625234 C418.94234771 -0.21174193 427.19159141 1.61775143 437.07917881 11.04828548 C448.68546198 22.93327871 454.47563595 38.51872199 458.35652256 54.38031673 C458.53723903 55.11386367 458.7179555 55.84741061 458.90414822 56.60318625 C462.95795916 73.77769196 462.92933004 90.88951605 462.86476219 108.41437089 C462.85350552 112.67957265 462.86564266 116.9447234 462.87460423 121.20992184 C462.88843908 129.53394813 462.88105385 137.85782132 462.86592864 146.18184014 C462.84895196 155.89959026 462.8522933 165.61730347 462.85602272 175.33506385 C462.86188319 192.68570944 462.8478 210.03628215 462.82307529 227.38690853 C462.79914877 244.17957953 462.79207773 260.97215324 462.80256748 277.76483822 C462.81400408 296.10583476 462.81587383 314.44678646 462.80146939 332.78778249 C462.79994373 334.74726506 462.79842338 336.70674763 462.79690838 338.6662302 C462.79615056 339.63003376 462.79539275 340.59383731 462.79461197 341.58684703 C462.78989117 348.34287705 462.79170476 355.09888688 462.79597378 361.85491657 C462.80092538 370.09826431 462.79480545 378.34152051 462.77507948 386.58484741 C462.76528026 390.7817252 462.7600216 394.97846429 462.76797199 399.17534924 C462.81831786 428.93575201 462.18782028 466.50877557 441.35652256 490.38031673 C440.69652256 490.38031673 440.03652256 490.38031673 439.35652256 490.38031673 C438.9717374 491.26203548 438.9717374 491.26203548 438.57917881 492.16156673 C437.24114113 494.58969901 435.86168255 496.04239674 433.79402256 497.88031673 C433.1739835 498.44750423 432.55394444 499.01469173 431.91511631 499.59906673 C422.71717634 506.00251807 413.9088996 505.94970402 403.08625889 505.8882513 C401.31948585 505.89286344 399.55271664 505.89921846 397.78595543 505.90716028 C392.94368656 505.92383375 388.10173368 505.91561621 383.25946379 505.90321541 C378.03238552 505.89415916 372.8053613 505.90813751 367.5782938 505.91913509 C357.34347995 505.93691872 347.10878346 505.933081 336.87396502 505.92148453 C328.55569194 505.91244989 320.23745173 505.91122635 311.91917515 505.9155798 C310.73513845 505.91619273 309.55110176 505.91680566 308.33118516 505.91743717 C305.92581454 505.91871607 303.52044393 505.92001292 301.11507332 505.92132753 C278.56151167 505.93273287 256.00801506 505.91962032 233.45446408 505.89812607 C214.10375048 505.88025514 194.75313286 505.88335926 175.402421 505.90180111 C152.92939486 505.9232086 130.45642572 505.93163424 107.98339081 505.91935205 C105.58688387 505.91807786 103.19037693 505.91682038 100.79386997 505.9155798 C99.02519313 505.91465414 99.02519313 505.91465414 97.22078544 505.91370979 C88.9127966 505.91025653 80.60484393 505.91608473 72.29686069 505.92549801 C62.17177623 505.936718 52.0468158 505.93367785 41.92174554 505.91237503 C36.75606888 505.90186471 31.59059901 505.89774262 26.4249239 505.91097164 C21.69498634 505.92290154 16.96544701 505.91632297 12.23554552 505.89506143 C10.52571009 505.89059793 8.81584093 505.89285598 7.10602725 505.90256459 C-4.61340065 505.96399825 -13.29174793 505.09758473 -22.20597744 496.75531673 C-23.47634853 495.5912933 -23.47634853 495.5912933 -24.77238369 494.40375423 C-26.64347744 492.38031673 -26.64347744 492.38031673 -26.64347744 490.38031673 C-27.30347744 490.38031673 -27.96347744 490.38031673 -28.64347744 490.38031673 C-49.59493674 464.78526223 -50.10953027 427.99960587 -50.05031049 396.73843658 C-50.04553032 392.47721372 -50.05813099 388.2160339 -50.0683279 383.9548254 C-50.0854274 375.63141906 -50.08637442 367.3080885 -50.081115 358.98466917 C-50.07705541 352.21184843 -50.07853796 345.4390499 -50.08386326 338.6662302 C-50.08461168 337.69822926 -50.0853601 336.73022831 -50.0861312 335.73289401 C-50.08766286 333.76570524 -50.0892012 331.79851647 -50.09074617 329.83132771 C-50.10443923 311.42916915 -50.09905609 293.02705323 -50.08756096 274.62489567 C-50.07763226 257.83442135 -50.09056869 241.04405729 -50.11449515 224.25359996 C-50.13894856 206.96143103 -50.14847871 189.66931332 -50.14184242 172.37712747 C-50.138364 162.68958663 -50.14049067 153.0021305 -50.15809345 143.31460285 C-50.17289381 135.06796284 -50.17334946 126.8214672 -50.15602254 118.57482978 C-50.14757406 114.3775546 -50.14520988 110.18053644 -50.1606741 105.98327541 C-50.22063417 88.44805121 -49.86560917 71.51874846 -45.64347744 54.38031673 C-45.44914368 53.58591415 -45.25480991 52.79151156 -45.05458724 51.97303617 C-40.37132838 33.16979021 -31.836398 14.95000747 -15.64347744 3.38031673 C-10.42052142 0.89060463 -5.82341363 0.0046377 0 0 Z " fill="#FEFEFE" transform="translate(49.64347743988037,4.619683265686035)"/>
<path d="M0 0 C0.72915832 -0.00465992 1.45831665 -0.00931984 2.20957068 -0.01412097 C4.64207722 -0.02602975 7.07402095 -0.01669176 9.50653172 -0.00736332 C11.27243992 -0.01153804 13.03834545 -0.01701632 14.80424601 -0.02368313 C19.64872284 -0.03813821 24.49302956 -0.0338928 29.33751571 -0.02651632 C34.56528787 -0.02178715 39.79302309 -0.03429226 45.02078342 -0.04453373 C55.25905579 -0.06173171 65.4972668 -0.06255969 75.73554986 -0.05732083 C84.05670382 -0.05327991 92.37783964 -0.05472175 100.69899273 -0.06006908 C101.88316491 -0.06081751 103.0673371 -0.06156593 104.28739329 -0.06233703 C106.69300544 -0.0638685 109.09861759 -0.06540685 111.50422973 -0.066952 C134.06445005 -0.08068055 156.6246357 -0.07523675 179.18485523 -0.06376678 C199.82592 -0.05383308 220.46689515 -0.06677685 241.10794609 -0.09070098 C262.30163473 -0.11508062 283.4952816 -0.1247027 304.68898398 -0.11804825 C316.58788889 -0.11455363 328.48672485 -0.11680418 340.38561916 -0.13429928 C350.51438152 -0.14900699 360.64302637 -0.14967533 370.77178638 -0.13222837 C375.93948554 -0.12370444 381.10697466 -0.12160293 386.27466297 -0.13687992 C391.00648388 -0.15069524 395.73791419 -0.14600444 400.46971232 -0.12664068 C402.18025343 -0.12287069 403.89082558 -0.12583137 405.60133909 -0.13625234 C418.94234771 -0.21174193 427.19159141 1.61775143 437.07917881 11.04828548 C448.68546198 22.93327871 454.47563595 38.51872199 458.35652256 54.38031673 C458.53723903 55.11386367 458.7179555 55.84741061 458.90414822 56.60318625 C462.95795916 73.77769196 462.92933004 90.88951605 462.86476219 108.41437089 C462.85350552 112.67957265 462.86564266 116.9447234 462.87460423 121.20992184 C462.88843908 129.53394813 462.88105385 137.85782132 462.86592864 146.18184014 C462.84895196 155.89959026 462.8522933 165.61730347 462.85602272 175.33506385 C462.86188319 192.68570944 462.8478 210.03628215 462.82307529 227.38690853 C462.79914877 244.17957953 462.79207773 260.97215324 462.80256748 277.76483822 C462.81400408 296.10583476 462.81587383 314.44678646 462.80146939 332.78778249 C462.79994373 334.74726506 462.79842338 336.70674763 462.79690838 338.6662302 C462.79615056 339.63003376 462.79539275 340.59383731 462.79461197 341.58684703 C462.78989117 348.34287705 462.79170476 355.09888688 462.79597378 361.85491657 C462.80092538 370.09826431 462.79480545 378.34152051 462.77507948 386.58484741 C462.76528026 390.7817252 462.7600216 394.97846429 462.76797199 399.17534924 C462.81831786 428.93575201 462.18782028 466.50877557 441.35652256 490.38031673 C440.69652256 490.38031673 440.03652256 490.38031673 439.35652256 490.38031673 C438.9717374 491.26203548 438.9717374 491.26203548 438.57917881 492.16156673 C437.24114113 494.58969901 435.86168255 496.04239674 433.79402256 497.88031673 C433.1739835 498.44750423 432.55394444 499.01469173 431.91511631 499.59906673 C422.71717634 506.00251807 413.9088996 505.94970402 403.08625889 505.8882513 C401.31948585 505.89286344 399.55271664 505.89921846 397.78595543 505.90716028 C392.94368656 505.92383375 388.10173368 505.91561621 383.25946379 505.90321541 C378.03238552 505.89415916 372.8053613 505.90813751 367.5782938 505.91913509 C357.34347995 505.93691872 347.10878346 505.933081 336.87396502 505.92148453 C328.55569194 505.91244989 320.23745173 505.91122635 311.91917515 505.9155798 C310.73513845 505.91619273 309.55110176 505.91680566 308.33118516 505.91743717 C305.92581454 505.91871607 303.52044393 505.92001292 301.11507332 505.92132753 C278.56151167 505.93273287 256.00801506 505.91962032 233.45446408 505.89812607 C214.10375048 505.88025514 194.75313286 505.88335926 175.402421 505.90180111 C152.92939486 505.9232086 130.45642572 505.93163424 107.98339081 505.91935205 C105.58688387 505.91807786 103.19037693 505.91682038 100.79386997 505.9155798 C99.02519313 505.91465414 99.02519313 505.91465414 97.22078544 505.91370979 C88.9127966 505.91025653 80.60484393 505.91608473 72.29686069 505.92549801 C62.17177623 505.936718 52.0468158 505.93367785 41.92174554 505.91237503 C36.75606888 505.90186471 31.59059901 505.89774262 26.4249239 505.91097164 C21.69498634 505.92290154 16.96544701 505.91632297 12.23554552 505.89506143 C10.52571009 505.89059793 8.81584093 505.89285598 7.10602725 505.90256459 C-4.61340065 505.96399825 -13.29174793 505.09758473 -22.20597744 496.75531673 C-23.47634853 495.5912933 -23.47634853 495.5912933 -24.77238369 494.40375423 C-26.64347744 492.38031673 -26.64347744 492.38031673 -26.64347744 490.38031673 C-27.30347744 490.38031673 -27.96347744 490.38031673 -28.64347744 490.38031673 C-49.59493674 464.78526223 -50.10953027 427.99960587 -50.05031049 396.73843658 C-50.04553032 392.47721372 -50.05813099 388.2160339 -50.0683279 383.9548254 C-50.0854274 375.63141906 -50.08637442 367.3080885 -50.081115 358.98466917 C-50.07705541 352.21184843 -50.07853796 345.4390499 -50.08386326 338.6662302 C-50.08461168 337.69822926 -50.0853601 336.73022831 -50.0861312 335.73289401 C-50.08766286 333.76570524 -50.0892012 331.79851647 -50.09074617 329.83132771 C-50.10443923 311.42916915 -50.09905609 293.02705323 -50.08756096 274.62489567 C-50.07763226 257.83442135 -50.09056869 241.04405729 -50.11449515 224.25359996 C-50.13894856 206.96143103 -50.14847871 189.66931332 -50.14184242 172.37712747 C-50.138364 162.68958663 -50.14049067 153.0021305 -50.15809345 143.31460285 C-50.17289381 135.06796284 -50.17334946 126.8214672 -50.15602254 118.57482978 C-50.14757406 114.3775546 -50.14520988 110.18053644 -50.1606741 105.98327541 C-50.22063417 88.44805121 -49.86560917 71.51874846 -45.64347744 54.38031673 C-45.44914368 53.58591415 -45.25480991 52.79151156 -45.05458724 51.97303617 C-40.37132838 33.16979021 -31.836398 14.95000747 -15.64347744 3.38031673 C-10.42052142 0.89060463 -5.82341363 0.0046377 0 0 Z M-17.64347744 45.38031673 C-28.65484225 61.54549704 -31.96622229 79.06090313 -31.89744473 98.40909481 C-31.89975439 99.78715877 -31.90293429 101.16522149 -31.90689921 102.54328167 C-31.9151866 106.29730066 -31.91114975 110.05121692 -31.90492678 113.8052361 C-31.9003782 117.86668742 -31.90739798 121.92812178 -31.91288662 125.98956966 C-31.92175718 133.93357939 -31.91986891 141.87755121 -31.91406134 149.82156239 C-31.909535 156.28187629 -31.90893615 162.7421796 -31.91110897 169.20249462 C-31.91141544 170.12379728 -31.9117219 171.04509993 -31.91203766 171.99432085 C-31.91267714 173.8662602 -31.91332557 175.73819956 -31.91398284 177.61013891 C-31.91967945 195.14407245 -31.91313907 212.67798504 -31.90238211 230.21191515 C-31.89345019 245.23567018 -31.89499698 260.25939429 -31.90421963 275.28314877 C-31.91493922 292.75347595 -31.91912706 310.22378479 -31.9129951 327.6941148 C-31.91235804 329.55957897 -31.9117293 331.42504314 -31.91110897 333.29050732 C-31.91080042 334.20821032 -31.91049187 335.12591333 -31.91017397 336.07142552 C-31.90845187 342.5181018 -31.9113517 348.96476638 -31.91606808 355.41144085 C-31.92169584 363.27636407 -31.9201209 371.1412474 -31.90950659 379.00616609 C-31.90427483 383.01398354 -31.90215018 387.02173465 -31.90880489 391.02955151 C-31.91481879 394.70725858 -31.91140082 398.3848386 -31.90084979 402.06253435 C-31.89760108 404.00412419 -31.90403784 405.94572303 -31.91096425 407.88730323 C-31.8276387 426.80238029 -28.70205684 447.99299329 -15.62785244 462.63812923 C-9.66157606 468.2628249 -4.42488893 468.50254938 3.66020012 468.51733112 C4.37692051 468.51998295 5.0936409 468.52263478 5.8320801 468.52536696 C8.23414656 468.53302757 10.63616163 468.53361789 13.03823948 468.53421688 C14.77767033 468.5382336 16.51710024 468.54267217 18.25652903 468.54749644 C23.0370609 468.55944371 27.81758267 468.56510606 32.59812653 468.56967759 C37.75366731 468.5756404 42.90919607 468.58724826 48.06472874 468.5979681 C60.51324403 468.6224721 72.9617633 468.63711402 85.41029528 468.65002817 C88.925856 468.65374082 92.44141632 468.65771397 95.95697665 468.66178083 C117.78761512 468.68701229 139.61825421 468.70906549 161.44890404 468.72150898 C166.50347807 468.72443866 171.55805209 468.72740033 176.61262608 468.73041439 C177.86891171 468.73116044 179.12519734 468.73190649 180.41955223 468.73267515 C200.78269168 468.74533606 221.14574395 468.77857085 241.50884262 468.82021622 C262.41317602 468.86261842 283.31746475 468.88620181 304.22184104 468.89142954 C315.95984165 468.89484502 327.69770588 468.90661687 339.43566418 468.93953228 C349.42906594 468.96750995 359.42230335 468.97854196 369.41574124 468.96733682 C374.5146252 468.9621449 379.61316484 468.96507201 384.71199894 468.98980236 C389.38104156 469.01225934 394.04949181 469.01158259 398.71854457 468.99259849 C400.40627465 468.98979356 402.09404461 468.99542439 403.78171048 469.01041143 C416.37838242 469.14242236 416.37838242 469.14242236 427.35652256 463.38031673 C446.0704809 444.51736191 444.95887186 415.4688461 444.86476219 390.91862714 C444.85352673 386.82929976 444.86563586 382.74002634 444.87460423 378.65070248 C444.88845306 370.66616333 444.88104334 362.68178359 444.86592864 354.69725219 C444.84896952 345.37976275 444.85229112 336.06231192 444.85602272 326.7448118 C444.86188574 310.11115579 444.84778984 293.47757576 444.82307529 276.84393978 C444.79914753 260.73779104 444.79207758 244.63174373 444.80256748 228.52558041 C444.81399879 210.94273856 444.81588035 193.35994348 444.80146939 175.77710217 C444.7999437 173.89935379 444.79842335 172.0216054 444.79690838 170.143857 C444.79615056 169.220208 444.79539275 168.296559 444.79461197 167.34492064 C444.78988714 160.86403453 444.79170766 154.38316944 444.79597378 147.90228367 C444.8009205 139.99693948 444.79482685 132.09169081 444.77507948 124.18636838 C444.76526647 120.16000361 444.76003693 116.13378369 444.76797199 112.10741138 C445.26628495 75.09639979 445.26628495 75.09639979 428.30183506 43.24359798 C423.58998056 38.98912131 420.51871366 37.25470601 414.06790733 37.25726891 C412.96466458 37.25527786 411.86142183 37.25328681 410.72474748 37.25123543 C409.50783729 37.25414827 408.2909271 37.25706111 407.03714085 37.26006222 C405.10381744 37.25878058 405.10381744 37.25878058 403.131437 37.25747305 C399.54670814 37.2552313 395.96200901 37.25924503 392.37728393 37.26425111 C388.51431488 37.26855999 384.65134758 37.26710888 380.78837681 37.26634884 C374.09311938 37.26582388 367.39787167 37.26896774 360.70261669 37.27458668 C351.02234082 37.28270549 341.34206966 37.28531729 331.66179075 37.28657467 C315.95708606 37.28876459 300.25238655 37.29542305 284.54768467 37.30487728 C269.28987243 37.31405295 254.03206161 37.32113303 238.77424717 37.32538509 C237.36407401 37.32577918 237.36407401 37.32577918 235.92541251 37.32618123 C231.20924198 37.32748624 226.49307144 37.32874995 221.77690089 37.32999313 C182.63677115 37.34036387 143.49664719 37.35798055 104.35652256 37.38031673 C104.35294003 39.25219032 104.35294003 39.25219032 104.34928513 41.16187954 C104.29182154 70.8406181 104.21901778 100.51927632 104.12753628 130.19792768 C104.11626924 133.85751927 104.10513061 137.51711123 104.09407139 141.17670345 C104.0918677 141.90520711 104.08966402 142.63371076 104.08739356 143.38429028 C104.05210174 155.15224813 104.02719192 166.92020593 104.00617554 178.68819696 C103.98434861 190.77944898 103.95123335 202.87063284 103.907821 214.9618268 C103.88378048 221.74643787 103.86480958 228.53098147 103.85890865 235.31563473 C103.85283271 241.71125766 103.83274232 248.10668854 103.80224705 254.50224018 C103.79350696 256.84016425 103.78973581 259.17811347 103.7915144 261.5160532 C103.80320515 283.98925015 102.29401863 307.89848965 86.35652256 325.38031673 C79.94071733 331.18635535 73.8396939 332.85290282 65.36433506 332.69672298 C58.43786277 331.96809408 53.88735079 328.54042666 49.35652256 323.38031673 C48.67589756 322.61719173 47.99527256 321.85406673 47.29402256 321.06781673 C36.96183267 306.73606947 35.48292637 288.46410788 34.35652256 271.38031673 C41.94652256 271.38031673 49.53652256 271.38031673 57.35652256 271.38031673 C57.35652256 275.01031673 57.35652256 278.64031673 57.35652256 282.38031673 C57.9831923 285.64336194 57.9831923 285.64336194 59.10652256 288.31781673 C59.43136631 289.19309017 59.75621006 290.06836361 60.09089756 290.97016048 C61.52750854 293.70592892 62.96384837 295.42711331 65.35652256 297.38031673 C70.17103152 298.06810373 72.15776665 298.20612636 76.16902256 295.44281673 C78.90455868 291.61306617 80.2078917 287.91275201 81.35652256 283.38031673 C81.53096614 282.70937135 81.70540972 282.03842596 81.88513947 281.3471489 C82.55958166 277.1022856 82.49031822 272.92128956 82.47677708 268.62975216 C82.4776315 267.64134392 82.47848593 266.65293567 82.47936624 265.63457566 C82.48101456 262.31957969 82.47551023 259.00463422 82.47004795 255.68964291 C82.46976591 253.31455137 82.46992414 250.93945974 82.47049046 248.56436825 C82.47074794 242.78246178 82.46640989 237.00057188 82.4600528 231.2186692 C82.4529024 224.49022545 82.45140747 217.76178405 82.45026463 211.03333703 C82.44807664 199.03449148 82.4414234 187.03565273 82.43196201 175.03681087 C82.42278136 163.3818633 82.41570372 151.72691758 82.4114542 140.07196712 C82.41106012 138.99413865 82.41106012 138.99413865 82.41065807 137.89453586 C82.40935302 134.28972787 82.40808932 130.68491987 82.40684617 127.08011186 C82.39648143 97.18017539 82.37879559 67.28024686 82.35652256 37.38031673 C71.26442808 37.33392456 60.17235678 37.29841253 49.08018494 37.27669239 C43.92934263 37.2662665 38.77856683 37.25212905 33.62776279 37.22943783 C28.65460718 37.20766695 23.68151545 37.19573912 18.70831585 37.19056225 C16.81336112 37.18687412 14.91840978 37.17967214 13.02348232 37.16885662 C10.36415591 37.15428533 7.70509162 37.15234115 5.04573154 37.15326595 C4.26673496 37.1460754 3.48773838 37.13888485 2.68513584 37.1314764 C-5.62194795 37.16262433 -12.11219283 38.8916944 -17.64347744 45.38031673 Z " fill="#06A6EA" transform="translate(49.64347743988037,4.619683265686035)"/>
<path d="M0 0 C11.50648239 5.14763686 17.66664488 15.89506187 22.1484375 27.19140625 C24.15138731 32.75976218 25.82865587 38.42333385 27.1484375 44.19140625 C27.42772095 45.37669922 27.42772095 45.37669922 27.71264648 46.5859375 C29.85744917 57.2359922 29.58826042 68.12418665 29.5859375 78.94140625 C29.58753876 80.51510986 29.58753876 80.51510986 29.58917236 82.12060547 C29.56629339 97.65928816 29.00377058 112.29655974 24.1484375 127.19140625 C23.92381836 127.92037109 23.69919922 128.64933594 23.46777344 129.40039062 C19.72569568 141.22034513 13.2205679 152.92416263 2.1484375 159.19140625 C-3.91164229 162.1509801 -11.64722647 162.33278957 -18.125 160.57421875 C-28.63261902 155.88109247 -35.67636837 145.39747466 -39.70458984 134.98681641 C-43.05137805 125.6146507 -45.79054901 116.11124325 -46.8515625 106.19140625 C-46.9355127 105.45664062 -47.01946289 104.721875 -47.10595703 103.96484375 C-47.96612181 95.71710989 -48.09357192 87.47598766 -48.1015625 79.19140625 C-48.10256958 78.46318665 -48.10357666 77.73496704 -48.10461426 76.98468018 C-48.0938774 65.47572105 -47.40904871 54.43711002 -44.8515625 43.19140625 C-44.58472656 41.90105469 -44.31789062 40.61070312 -44.04296875 39.28125 C-40.7065687 24.94214401 -34.76177282 11.35741451 -22.8515625 2.19140625 C-15.78587694 -2.04991991 -7.87813663 -2.23393737 0 0 Z " fill="#07A6EA" transform="translate(216.8515625,176.80859375)"/>
<path d="M0 0 C6.6 0 13.2 0 20 0 C20.33 20.46 20.66 40.92 21 62 C22.65 59.03 24.3 56.06 26 53 C28.88221208 49.31816801 31.84438285 46.4932917 36.4921875 45.4296875 C42.42660232 45.15912147 46.2619128 46.49381547 51 50 C68.57032263 69.99735164 66.84276999 101.17574162 66 126 C64.90563364 142.26482174 60.71617452 161.18765567 48.3125 172.4375 C44.22382743 175.2001166 40.84635824 175.40386319 36 175 C28.58417619 172.08664065 24.50252337 166.00504674 21 159 C20.67 163.29 20.34 167.58 20 172 C13.4 172 6.8 172 0 172 C0 115.24 0 58.48 0 0 Z " fill="#08A7EA" transform="translate(261,156)"/>
<path d="M0 0 C6.27 0 12.54 0 19 0 C20.30439489 4.5653821 21.45701846 8.90276152 22.38867188 13.52685547 C22.64233521 14.77860565 22.89599854 16.03035583 23.15734863 17.32003784 C23.42784827 18.66908121 23.69831456 20.01813126 23.96875 21.3671875 C24.25229444 22.77057237 24.53611272 24.17390193 24.82019043 25.57717896 C25.56488854 29.25897759 26.30639368 32.9414115 27.04705811 36.62402344 C28.23137104 42.50968048 29.42059236 48.39434762 30.60975647 54.27902603 C31.02169413 56.31984584 31.4322892 58.36093198 31.84265137 60.40206909 C33.16310161 66.95090049 34.52014456 73.4852647 36 80 C36.16064438 79.02725128 36.32128876 78.05450256 36.48680115 77.05227661 C37.99886865 67.89889319 39.51433463 58.74607813 41.03315639 49.59381294 C41.81394449 44.88818257 42.59352085 40.18235804 43.37036133 35.47607422 C44.11966414 30.93689421 44.87210626 26.39824493 45.62675667 21.85995102 C45.91455749 20.12573774 46.20121376 18.39133413 46.48672295 16.6567421 C46.88585342 14.23305455 47.28899534 11.8100669 47.69311523 9.38720703 C47.81107956 8.66503998 47.92904388 7.94287292 48.05058289 7.19882202 C48.88594784 2.22810432 48.88594784 2.22810432 50 0 C56.27 0 62.54 0 69 0 C68.42861244 7.22216347 67.54133922 14.21466202 66.14575195 21.31958008 C65.96017227 22.28736893 65.77459259 23.25515778 65.58338928 24.25227356 C64.97350932 27.42571143 64.35599028 30.59760885 63.73828125 33.76953125 C63.3052377 36.01356127 62.87264437 38.25767821 62.44047546 40.50187683 C61.30176221 46.40789504 60.15642416 52.3126102 59.00982666 58.21710205 C57.86474889 64.12109295 56.72680611 70.02645854 55.58789062 75.93164062 C53.25538891 88.01675962 50.90887128 100.09911013 48.55061722 112.17922974 C48.19646384 113.99353063 47.84254968 115.80787825 47.48893356 117.62228394 C46.50456896 122.67271558 45.51302739 127.72165784 44.515625 132.76953125 C44.17794853 134.49826225 44.17794853 134.49826225 43.83345032 136.26191711 C38.6965882 162.04747716 38.6965882 162.04747716 29.1875 170.5 C23.3382735 173.49018754 15.23246846 172.20603202 9 172 C9 163.42 9 154.84 9 146 C12.63 145.67 16.26 145.34 20 145 C22.93158237 142.06841763 23.57819326 141.02986001 24.6875 137.25 C24.93886719 136.43015625 25.19023437 135.6103125 25.44921875 134.765625 C26.60544005 128.95991804 25.90285232 123.73226372 24.53125 118.03125 C24.3755101 117.37079178 24.2197702 116.71033356 24.05931091 116.02986145 C23.72220025 114.60101931 23.38192179 113.17292155 23.03878784 111.74551392 C22.10141131 107.83879614 21.19244637 103.92551687 20.28515625 100.01171875 C20.09530655 99.19350143 19.90545685 98.37528412 19.70985413 97.53227234 C17.62769072 88.4912692 15.77429791 79.4059551 13.9375 70.3125 C11.44087017 57.98015605 8.88646892 45.66479362 6.1875 33.375 C5.7706897 31.47488159 5.7706897 31.47488159 5.34545898 29.53637695 C3.78872641 22.47241035 3.78872641 22.47241035 2.13525391 15.43066406 C1.85987793 14.29081055 1.58450195 13.15095703 1.30078125 11.9765625 C0.92626831 10.46570068 0.92626831 10.46570068 0.54418945 8.92431641 C0 6 0 6 0 0 Z " fill="#08A7EA" transform="translate(422,205)"/>
<path d="M0 0 C0.84272461 0.00499512 1.68544922 0.00999023 2.55371094 0.01513672 C4.1436084 0.04244873 4.1436084 0.04244873 5.765625 0.0703125 C9.148125 0.1115625 12.530625 0.1528125 16.015625 0.1953125 C16.015625 9.1053125 16.015625 18.0153125 16.015625 27.1953125 C8.703125 27.3203125 8.703125 27.3203125 6.4128418 27.31298828 C4.27646561 27.3498118 4.27646561 27.3498118 1.015625 28.1953125 C-2.19054539 32.4357314 -2.49551556 36.9096587 -2.671875 42.0703125 C-2.775 44.4215625 -2.878125 46.7728125 -2.984375 49.1953125 C2.625625 49.1953125 8.235625 49.1953125 14.015625 49.1953125 C14.015625 58.4353125 14.015625 67.6753125 14.015625 77.1953125 C8.405625 77.1953125 2.795625 77.1953125 -2.984375 77.1953125 C-2.984375 108.5453125 -2.984375 139.8953125 -2.984375 172.1953125 C-9.254375 172.1953125 -15.524375 172.1953125 -21.984375 172.1953125 C-21.984375 140.8453125 -21.984375 109.4953125 -21.984375 77.1953125 C-25.284375 77.1953125 -28.584375 77.1953125 -31.984375 77.1953125 C-31.984375 67.9553125 -31.984375 58.7153125 -31.984375 49.1953125 C-28.684375 49.1953125 -25.384375 49.1953125 -21.984375 49.1953125 C-22.03658203 46.91367188 -22.03658203 46.91367188 -22.08984375 44.5859375 C-22.54368392 16.64827384 -22.54368392 16.64827384 -13.984375 6.1953125 C-9.60109647 2.13276167 -6.02143565 -0.07343214 0 0 Z " fill="#07A6EA" transform="translate(404.984375,155.8046875)"/>
<path d="M0 0 C4.53833874 0.3781949 5.7093095 0.95173682 8.75 4.3125 C16.74939048 16.07350862 17.26356343 31.38350072 17.14111328 45.16699219 C17.12500004 47.31249488 17.14109647 49.45611523 17.16015625 51.6015625 C17.18132487 65.74996379 15.993617 81.64080972 7.5 93.4375 C4.32003642 95.60565699 2.46018574 96.05965612 -1.328125 95.7890625 C-5.34116528 94.79395902 -7.13634389 91.97497225 -9.3359375 88.69140625 C-12.91751693 82.43037454 -14.00660807 75.3372684 -15.25 68.3125 C-15.43691406 67.29027344 -15.62382812 66.26804687 -15.81640625 65.21484375 C-17.75369997 47.77920028 -19.73368454 19.50165152 -7.91796875 4.63671875 C-6.5625 3.25 -6.5625 3.25 -4.25 1.3125 C-3.25 0.3125 -3.25 0.3125 0 0 Z " fill="#FBFDFE" transform="translate(207.25,208.6875)"/>
<path d="M0 0 C6.6 0 13.2 0 20 0 C20 40.59 20 81.18 20 123 C13.4 123 6.8 123 0 123 C0 82.41 0 41.82 0 0 Z " fill="#07A6EA" transform="translate(341,205)"/>
<path d="M0 0 C3.64572435 1.00571706 5.3291173 1.94379209 7.5625 5 C16.15881397 21.18129689 13.96274551 44.8695813 9.625 62 C8.05251628 66.41793046 6.62966066 69.33022623 2.625 72 C-0.75 72.4375 -0.75 72.4375 -4.375 72 C-11.07807429 66.47325948 -12.44974838 59.26613689 -13.375 51 C-13.69117418 45.748075 -13.79154382 40.50929964 -13.8125 35.25 C-13.8225708 33.93596191 -13.8326416 32.62192383 -13.84301758 31.26806641 C-13.7522757 21.04705524 -13.22180879 10.13058543 -6.375 2 C-3.375 0 -3.375 0 0 0 Z " fill="#FBFDFE" transform="translate(294.375,230)"/>
<path d="M0 0 C6.6 0 13.2 0 20 0 C20 10.89 20 21.78 20 33 C13.4 33 6.8 33 0 33 C0 22.11 0 11.22 0 0 Z " fill="#0DA9EA" transform="translate(341,156)"/>
</svg>
